# xmcd
#
# Track frame offsets:
#	150
#	15947
#	33374
#	49684
#	66148
#	85048
#	102853
#	117211
#	136812
#	153317
#
# Disc length: 2262 seconds
#
# Revision: 0
# Processed by: cddbd v1.5.1PL0 Copyright (c) Steve Scherf et al.
# Submitted via: dBpowerAMP V4.0
#
DISCID=6d08d40a
DTITLE=Various Artist - American Music Legends
DYEAR=1900
DGENRE=Country
TTITLE0=Kenny Rogers - The Gambler
TTITLE1=Kenny Rogers - Lady
TTITLE2=Kenny Rogers - Love Will turn You Around
TTITLE3=Kenny Rogers - Lucille
TTITLE4=Kenny Rogers - She Believes in Me
TTITLE5=Kenny Rogers - Scarlet Fever
TTITLE6=Kenny Rogers - Love the World Away
TTITLE7=Kenny Rogers - Coward of the County
TTITLE8=Kenny Rogers-/ Kim Carnes - Don't Fall in Love With a Dreamer
TTITLE9=Kenny Rogers - You Decorated My Life
EXTD=American Music Legends series from Cracker Barrel Restaurant\n
EXTT0=
EXTT1=
EXTT2=
EXTT3=
EXTT4=
EXTT5=
EXTT6=
EXTT7=
EXTT8=
EXTT9=
PLAYORDER=
